<svg width="23" height="22" viewBox="0 0 23 22" fill="none" xmlns="http://www.w3.org/2000/svg">
<g clip-path="url(#clip0)">
<g clip-path="url(#clip1)">
<path d="M15.4896 0.335602L7.47724 0.335602C3.79023 0.335602 0.800293 3.32554 0.800293 7.01255L0.800293 15.0249C0.800293 18.7119 3.79023 21.7018 7.47724 21.7018L15.4896 21.7018C19.1766 21.7018 22.1665 18.7119 22.1665 15.0249L22.1665 7.01255C22.1665 3.32554 19.1766 0.335602 15.4896 0.335602ZM20.1634 15.0249C20.1634 17.6022 18.0669 19.6988 15.4896 19.6988L7.47724 19.6988C4.89994 19.6988 2.80338 17.6022 2.80338 15.0249L2.80338 7.01255C2.80338 4.43525 4.89994 2.33869 7.47724 2.33869L15.4896 2.33869C18.0669 2.33869 20.1634 4.43525 20.1634 7.01255L20.1634 15.0249Z" fill="white"/>
<path d="M11.4835 5.67709C8.53359 5.67709 6.14191 8.06878 6.14191 11.0187C6.14191 13.9685 8.53359 16.3602 11.4835 16.3602C14.4333 16.3602 16.825 13.9685 16.825 11.0187C16.825 8.06878 14.4333 5.67709 11.4835 5.67709ZM11.4835 14.3571C9.6433 14.3571 8.14499 12.8588 8.14499 11.0187C8.14499 9.17715 9.6433 7.68018 11.4835 7.68018C13.3236 7.68018 14.8219 9.17715 14.8219 11.0187C14.8219 12.8588 13.3236 14.3571 11.4835 14.3571Z" fill="white"/>
<path d="M17.4926 5.67706C17.8614 5.67706 18.1603 5.37813 18.1603 5.00937C18.1603 4.64061 17.8614 4.34167 17.4926 4.34167C17.1239 4.34167 16.825 4.64061 16.825 5.00937C16.825 5.37813 17.1239 5.67706 17.4926 5.67706Z" fill="white"/>
</g>
</g>
<defs>
<clipPath id="clip0">
<rect width="21.3662" height="21.3662" fill="white" transform="translate(0.800293 0.335602)"/>
</clipPath>
<clipPath id="clip1">
<rect width="21.3662" height="21.3662" fill="white" transform="translate(0.800293 0.335602)"/>
</clipPath>
</defs>
</svg>
