<svg width="22" height="22" viewBox="0 0 22 22" fill="none" xmlns="http://www.w3.org/2000/svg">
<g clip-path="url(#clip0)">
<path d="M21.2437 15.0614C21.1862 14.9666 20.831 14.2056 19.1216 12.6415C17.332 11.0037 17.5724 11.2697 19.7279 8.43769C21.0407 6.71296 21.5655 5.65969 21.4013 5.20942C21.245 4.78021 20.2794 4.89344 20.2794 4.89344L17.0689 4.91187C17.0689 4.91187 16.8312 4.88027 16.6536 4.98428C16.4813 5.08697 16.3705 5.32396 16.3705 5.32396C16.3705 5.32396 15.8617 6.65898 15.1832 7.79387C13.7529 10.1887 13.18 10.3151 12.9463 10.1664C12.4027 9.8201 12.539 8.77341 12.539 8.03086C12.539 5.70972 12.8955 4.74203 11.8432 4.49188C11.4933 4.40893 11.2369 4.35364 10.3434 4.34442C9.19757 4.33257 8.22667 4.34837 7.67778 4.613C7.31186 4.78943 7.03007 5.18309 7.20235 5.20547C7.41469 5.23312 7.89546 5.33318 8.15054 5.67549C8.48041 6.11654 8.46839 7.10925 8.46839 7.10925C8.46839 7.10925 8.65803 9.84117 8.02634 10.1808C7.59231 10.4139 6.99802 9.93859 5.72263 7.76491C5.06957 6.65239 4.57544 5.42139 4.57544 5.42139C4.57544 5.42139 4.48062 5.1923 4.31101 5.06986C4.10535 4.92108 3.81688 4.87369 3.81688 4.87369L0.763959 4.89212C0.763959 4.89212 0.305886 4.90529 0.137615 5.10146C-0.01196 5.27656 0.125595 5.63731 0.125595 5.63731C0.125595 5.63731 2.51612 11.1499 5.22182 13.9292C7.70449 16.4768 10.5224 16.3096 10.5224 16.3096L11.7991 16.3096C11.7991 16.3096 12.1851 16.2674 12.3814 16.0581C12.563 15.8659 12.5563 15.5051 12.5563 15.5051C12.5563 15.5051 12.5309 13.8159 13.3269 13.5671C14.1108 13.3222 15.1178 15.1997 16.1848 15.9225C16.9915 16.4689 17.6045 16.349 17.6045 16.349L20.4584 16.3096C20.4584 16.3096 21.9515 16.2187 21.2437 15.0614Z" fill="white"/>
</g>
<defs>
<clipPath id="clip0">
<rect width="21.3662" height="21.3662" fill="white" transform="translate(0.0678711 0.335602)"/>
</clipPath>
</defs>
</svg>
