<svg width="22" height="22" viewBox="0 0 22 22" fill="none" xmlns="http://www.w3.org/2000/svg">
<g clip-path="url(#clip0)">
<path d="M20.4582 5.75743C19.8786 4.72651 19.2496 4.53689 17.969 4.46477C16.6897 4.37797 13.4727 4.34192 10.6858 4.34192C7.89349 4.34192 4.6752 4.37797 3.39723 4.46344C2.11926 4.53689 1.48896 4.72518 0.904059 5.75743C0.30714 6.78702 -5.90655e-10 8.56042 -1.0278e-09 11.6826C-1.02818e-09 11.6852 -1.02836e-09 11.6866 -1.02836e-09 11.6866C-1.02874e-09 11.6892 -1.02893e-09 11.6906 -1.02893e-09 11.6906L-1.0293e-09 11.6932C-1.46458e-09 14.802 0.30714 16.5888 0.904059 17.6077C1.48896 18.6386 2.11793 18.8256 3.3959 18.9124C4.6752 18.9871 7.89349 19.0312 10.6858 19.0312C13.4727 19.0312 16.6897 18.9871 17.9703 18.9137C19.251 18.8269 19.88 18.6399 20.4595 17.609C21.0618 16.5901 21.3662 14.8034 21.3662 11.6946C21.3662 11.6946 21.3662 11.6906 21.3662 11.6879C21.3662 11.6879 21.3662 11.6852 21.3662 11.6839C21.3662 8.56042 21.0618 6.78702 20.4582 5.75743ZM8.01234 15.6927L8.01234 7.68039L14.6893 11.6866L8.01234 15.6927Z" fill="white"/>
</g>
<defs>
<clipPath id="clip0">
<rect width="21.3662" height="21.3662" fill="white" transform="translate(0 0.335815)"/>
</clipPath>
</defs>
</svg>
